<svg width="140" height="31" viewBox="0 0 140 31" fill="none" xmlns="http://www.w3.org/2000/svg">
<path d="M57.2785 5.86593C58.9066 5.86593 60.2265 4.5528 60.2265 2.93297C60.2265 1.31313 58.9066 0 57.2785 0C55.6504 0 54.3306 1.31313 54.3306 2.93297C54.3306 4.5528 55.6504 5.86593 57.2785 5.86593Z" fill="#4F616D"/>
<path d="M0 30.1315H5.75831V12.6119H18.7587V8.19287H0V30.1315Z" fill="#4F616D"/>
<path d="M53.2099 21.8708V8.17383H47.4614V30.132H53.2099L61.5624 16.7088V30.1613L67.4288 30.132V8.17383H61.5624L53.2099 21.8708Z" fill="#4F616D"/>
<path d="M90.6196 14.1471C90.6124 12.8908 90.2053 11.6691 89.4567 10.6574C88.7082 9.64568 87.6567 8.89593 86.4532 8.51576C84.8516 8.09102 83.197 7.89677 81.54 7.93895C80.0113 7.8242 78.4743 7.97976 77.0002 8.39844C75.695 8.74107 74.5391 9.50064 73.71 10.5604C72.881 11.6202 72.4246 12.9215 72.4112 14.2644H77.7371C77.7443 13.9281 77.8385 13.5994 78.0106 13.31C78.1827 13.0206 78.427 12.7802 78.7198 12.6121C79.5343 12.2791 80.4171 12.145 81.2943 12.2211H81.54C82.507 12.1477 83.4787 12.2811 84.3897 12.6121C84.681 12.7794 84.9244 13.0182 85.0965 13.3058C85.2685 13.5933 85.3635 13.92 85.3723 14.2546C85.3802 14.5061 85.3376 14.7567 85.2472 14.9917C85.1567 15.2267 85.0202 15.4414 84.8455 15.6234C84.6708 15.8054 84.4615 15.9509 84.2297 16.0516C83.998 16.1523 83.7483 16.2061 83.4955 16.2099H78.7394V20.5996H83.1515C83.8591 20.6222 84.5306 20.9152 85.0266 21.4177C85.5226 21.9203 85.8047 22.5937 85.8145 23.2979C85.8075 23.7569 85.6863 24.207 85.4617 24.6079C85.237 25.0089 84.916 25.3482 84.5272 25.5954C83.6867 26.0055 82.7439 26.1618 81.8151 26.0451C80.8811 26.1625 79.9331 25.999 79.0932 25.5758C78.7225 25.3551 78.4121 25.047 78.1893 24.6787C77.9665 24.3105 77.8383 23.8933 77.8158 23.4641H72.0181C72.0466 24.495 72.3088 25.5062 72.7852 26.4221C73.2617 27.3379 73.94 28.1348 74.7695 28.7532C76.3516 29.9655 79.0342 30.4152 81.7856 30.4152C83.9492 30.5014 86.1039 30.0933 88.0844 29.2225C89.0323 28.6793 89.8363 27.919 90.4297 27.0047C91.0231 26.0905 91.3887 25.0486 91.4964 23.9655C91.604 22.8825 91.4504 21.7895 91.0484 20.7774C90.6464 19.7652 90.0076 18.863 89.185 18.1457C89.6863 17.6122 90.0723 16.9822 90.3191 16.2944C90.5659 15.6066 90.6681 14.8758 90.6196 14.1471Z" fill="#4F616D"/>
<path d="M101.852 21.3331H112.445V16.9141H101.852V12.6124H114.292V8.17383H96.0936V30.1613H114.872V25.7618H101.852V21.3331Z" fill="#4F616D"/>
<path d="M29.4701 21.3331H40.063V16.9141H29.4701V12.6124H41.9104V8.17383H23.7118V30.1613H42.4901V25.7618H29.4701V21.3331Z" fill="#4F616D"/>
<path d="M131.34 8.25098H119.843V30.1309H125.631V24.0206H131.35C133.382 23.9484 135.308 23.1046 136.734 21.6626C138.16 20.2206 138.976 18.29 139.015 16.2677V16.0624C139.036 14.0148 138.24 12.0424 136.801 10.578C135.362 9.11363 133.398 8.27676 131.34 8.25098ZM133.306 16.1798C133.304 16.6368 133.212 17.0891 133.035 17.5109C132.859 17.9327 132.6 18.3157 132.274 18.638C131.948 18.9602 131.562 19.2155 131.137 19.3892C130.712 19.563 130.257 19.6517 129.798 19.6504H125.621V12.6015H129.896C130.799 12.6409 131.654 13.0203 132.287 13.6628C132.92 14.3053 133.284 15.163 133.306 16.0624V16.1798Z" fill="#4F616D"/>
</svg>
